<?xml version="1.0" encoding="UTF-8"?>
<svg version="1.1" xmlns="http://www.w3.org/2000/svg" width="50" height="50">
<path d="M0 0 C4.72040645 3.93367204 8.98200436 7.99842844 13.10546875 12.55859375 C14.86191574 14.24120886 14.86191574 14.24120886 16.91625977 13.77392578 C19.30426108 12.88699384 20.46661999 11.87938141 22.234375 10.05859375 C22.80800781 9.47529297 23.38164063 8.89199219 23.97265625 8.29101562 C24.55917969 7.67935547 25.14570312 7.06769531 25.75 6.4375 C26.35199219 5.82197266 26.95398438 5.20644531 27.57421875 4.57226562 C29.05634381 3.05485187 30.5290967 1.52829404 32 0 C32.99 0.66 33.98 1.32 35 2 C33.34136495 6.32504836 30.128959 9.09418825 26.875 12.25 C26.31167969 12.80429687 25.74835937 13.35859375 25.16796875 13.9296875 C23.78313972 15.29104485 22.39216796 16.64614859 21 18 C22.65863505 22.32504836 25.871041 25.09418825 29.125 28.25 C29.68832031 28.80429687 30.25164063 29.35859375 30.83203125 29.9296875 C32.21686028 31.29104485 33.60783204 32.64614859 35 34 C34.34 35.32 33.68 36.64 33 38 C28.67495164 36.34136495 25.90581175 33.128959 22.75 29.875 C22.19570313 29.31167969 21.64140625 28.74835937 21.0703125 28.16796875 C19.70895515 26.78313972 18.35385141 25.39216796 17 24 C12.67495164 25.65863505 9.90581175 28.871041 6.75 32.125 C6.19570312 32.68832031 5.64140625 33.25164063 5.0703125 33.83203125 C3.70895515 35.21686028 2.35385141 36.60783204 1 38 C-0.32 37.34 -1.64 36.68 -3 36 C0.93367204 31.27959355 4.99842844 27.01799564 9.55859375 22.89453125 C11.24120886 21.13808426 11.24120886 21.13808426 10.77392578 19.08374023 C9.88699384 16.69573892 8.87938141 15.53338001 7.05859375 13.765625 C6.18364258 12.90517578 6.18364258 12.90517578 5.29101562 12.02734375 C4.37352539 11.14755859 4.37352539 11.14755859 3.4375 10.25 C2.51420898 9.34701172 2.51420898 9.34701172 1.57226562 8.42578125 C0.05485187 6.94365619 -1.47170596 5.4709033 -3 4 C-2.01 2.68 -1.02 1.36 0 0 Z " fill="#3A0663" transform="translate(9,6)"/>
</svg>
